# Blender v2.93.5 OBJ File: 'domikkk.blend'
# www.blender.org
mtllib 1.mtl
o Куб.020_Куб.030
v 141.468170 -5.140174 87.461578
v 141.468170 -44.909096 87.461571
v 142.591019 -40.882259 -84.817276
v 142.591019 -1.113340 -84.817268
v 315.159973 -40.882259 -84.817276
v 315.159973 -1.113340 -84.817268
v 314.037140 -44.909096 87.461571
v 314.037140 -5.140174 87.461578
vt 0.190254 0.066513
vt 0.186371 0.066605
vt 0.186371 0.049759
vt 0.190254 0.049667
vt 0.010239 0.199844
vt 0.006355 0.199844
vt 0.006355 0.182976
vt 0.010239 0.182976
vt 0.186691 0.023224
vt 0.186691 0.006348
vt 0.190575 0.006348
vt 0.190575 0.023224
vt 0.098984 0.173248
vt 0.098984 0.190094
vt 0.095097 0.190002
vt 0.095097 0.173157
vn 1.0000 0.0000 0.0065
vn 0.0000 -0.0000 1.0000
vn 0.0000 0.0000 -1.0000
vn -1.0000 0.0000 -0.0065
usemtl None
s off
f 1/1/1 2/2/1 3/3/1 4/4/1
f 4/5/2 3/6/2 5/7/2 6/8/2
f 7/9/3 2/10/3 1/11/3 8/12/3
f 5/13/4 7/14/4 8/15/4 6/16/4
