# Blender v2.93.5 OBJ File: 'domikk.blend'
# www.blender.org
mtllib ll.mtl
o Куб.005
v -582.529602 140.892136 -9.714205
v -580.983643 142.409836 -9.714205
v -582.529846 142.438629 -8.167989
v -580.983643 153.285095 -9.714205
v -582.529846 154.831299 -9.714205
v -582.529846 153.285095 -8.167989
v -639.511169 141.881073 -9.712964
v -639.510925 143.489517 -8.167990
v -641.057129 143.457001 -9.714206
v -639.510925 154.831299 -9.714209
v -641.057129 153.285095 -9.714209
v -639.510925 153.285095 -8.167993
v -582.529846 140.863632 -34.243996
v -582.529846 142.409836 -35.790215
v -580.983643 142.409836 -34.243996
v -582.529846 154.831299 -34.243996
v -580.983643 153.285095 -34.243996
v -582.529846 153.285095 -35.790215
v -639.510925 140.925598 -34.245243
v -641.057129 142.473099 -34.243999
v -639.510925 142.409836 -35.790215
v -639.510925 154.831299 -34.243999
v -639.510925 153.285095 -35.790215
v -641.057129 153.285095 -34.243999
vt 0.554125 0.943500
vt 0.554036 0.943500
vt 0.554036 0.943303
vt 0.554125 0.943303
vt 0.870982 0.866412
vt 0.870893 0.866412
vt 0.870893 0.865949
vt 0.870982 0.865949
vt 0.876386 0.085126
vt 0.876582 0.085126
vt 0.876582 0.085589
vt 0.876386 0.085589
vt 0.833529 0.668132
vt 0.833440 0.668132
vt 0.833440 0.667669
vt 0.833522 0.667669
vt 0.948504 0.879344
vt 0.948423 0.879344
vt 0.948423 0.879147
vt 0.948511 0.879148
vt 0.833542 0.668132
vt 0.833529 0.668144
vt 0.554024 0.943303
vt 0.554036 0.943291
vt 0.833535 0.667669
vt 0.833522 0.667656
vt 0.948410 0.879344
vt 0.948423 0.879356
vt 0.870995 0.865949
vt 0.870982 0.865936
vt 0.554024 0.943500
vt 0.554036 0.943512
vt 0.948524 0.879148
vt 0.948512 0.879135
vt 0.870880 0.866412
vt 0.870893 0.866425
vt 0.833440 0.668144
vt 0.833427 0.668132
vt 0.833427 0.667669
vt 0.833440 0.667656
vt 0.948517 0.879344
vt 0.948410 0.879147
vt 0.948423 0.879135
vt 0.870995 0.866412
vt 0.870880 0.865949
vt 0.870893 0.865936
vt 0.554138 0.943303
vt 0.554138 0.943500
vt 0.870649 0.724630
vt 0.870852 0.724630
vt 0.870852 0.725093
vt 0.870649 0.725093
vn 1.0000 0.0000 0.0000
vn 0.0000 0.0000 -1.0000
vn 0.0000 1.0000 0.0000
vn -0.0000 0.0000 1.0000
vn -1.0000 0.0000 0.0000
vn 0.5702 -0.5808 0.5810
vn 0.5773 0.5774 0.5773
vn -0.5771 -0.5657 0.5890
vn -0.5773 0.5774 0.5773
vn 0.5773 -0.5774 -0.5773
vn 0.5773 0.5774 -0.5773
vn -0.5855 -0.5846 -0.5616
vn -0.5773 0.5774 -0.5773
vn -0.0125 -0.6998 0.7142
vn 0.7071 0.0000 0.7071
vn -0.0000 0.7071 0.7071
vn -0.7071 0.0000 0.7071
vn -0.7104 -0.7033 0.0278
vn -0.7071 0.7071 0.0000
vn -0.7071 0.0000 -0.7071
vn -0.0004 -0.7141 -0.7001
vn 0.0000 0.7071 -0.7071
vn 0.7071 0.0000 -0.7071
vn 0.7039 -0.7103 0.0004
vn 0.7071 0.7071 0.0000
vn -0.0092 -0.9998 0.0201
usemtl None
s off
f 15/1/1 17/2/1 4/3/1 2/4/1
f 21/5/2 23/6/2 18/7/2 14/8/2
f 22/9/3 10/10/3 5/11/3 16/12/3
f 3/13/4 6/14/4 12/15/4 8/16/4
f 9/17/5 11/18/5 24/19/5 20/20/5
f 1/21/6 2/22/6 3/13/6
f 4/3/7 5/23/7 6/24/7
f 7/25/8 8/16/8 9/26/8
f 10/27/9 11/18/9 12/28/9
f 13/29/10 14/8/10 15/30/10
f 16/31/11 17/2/11 18/32/11
f 19/33/12 20/20/12 21/34/12
f 22/35/13 23/6/13 24/36/13
f 7/25/14 1/21/14 3/13/14 8/16/14
f 2/22/15 4/37/15 6/14/15 3/13/15
f 5/38/16 10/39/16 12/15/16 6/14/16
f 11/40/17 9/26/17 8/16/17 12/15/17
f 19/33/18 7/41/18 9/17/18 20/20/18
f 10/27/19 22/42/19 24/19/19 11/18/19
f 23/43/20 21/34/20 20/20/20 24/19/20
f 13/29/21 19/44/21 21/5/21 14/8/21
f 22/35/22 16/45/22 18/7/22 23/6/22
f 17/46/23 15/30/23 14/8/23 18/7/23
f 1/47/24 13/48/24 15/1/24 2/4/24
f 16/31/25 5/23/25 4/3/25 17/2/25
f 7/49/26 19/50/26 13/51/26 1/52/26
o Куб.006_Куб.007
v -623.189087 156.831299 -12.693887
v -623.907898 156.831299 -31.128201
v -634.356079 156.831299 -12.460343
v -635.074890 156.831299 -30.894657
v -623.189087 154.831299 -12.693887
v -623.907898 154.831299 -31.128201
v -634.356079 154.831299 -12.460343
v -635.074890 154.831299 -30.894657
vt 0.870880 0.879135
vt 0.871071 0.879135
vt 0.871071 0.879501
vt 0.870880 0.879494
vt 0.498955 0.942146
vt 0.498955 0.942337
vt 0.498764 0.942337
vt 0.498764 0.942146
vt 0.471100 0.610252
vt 0.471291 0.610252
vt 0.471291 0.610611
vt 0.471100 0.610619
vt 0.348221 0.943520
vt 0.348030 0.943520
vt 0.348030 0.943329
vt 0.348221 0.943329
vt 0.063271 0.886772
vt 0.063080 0.886772
vt 0.063080 0.886414
vt 0.063271 0.886414
vt 0.858170 0.879631
vt 0.857979 0.879631
vt 0.857979 0.879272
vt 0.858170 0.879272
vn 0.0000 1.0000 -0.0000
vn -0.9992 0.0000 0.0390
vn 0.0000 -1.0000 -0.0000
vn 0.9992 0.0000 -0.0390
vn 0.0209 0.0000 0.9998
vn -0.0209 0.0000 -0.9998
usemtl None
s off
f 25/53/27 26/54/27 28/55/27 27/56/27
f 27/57/28 28/58/28 32/59/28 31/60/28
f 31/61/29 32/62/29 30/63/29 29/64/29
f 29/65/30 30/66/30 26/67/30 25/68/30
f 27/69/31 31/70/31 29/71/31 25/72/31
f 32/73/32 28/74/32 26/75/32 30/76/32
