# Blender v2.93.5 OBJ File: 'domikk.blend'
# www.blender.org
mtllib lll.mtl
o Куб.052_Куб.056
v -431.357391 41.593513 -71.773529
v -431.357391 73.127647 -71.773529
v -428.578400 41.593513 -71.773529
v -428.578400 73.127647 -71.773529
v -431.357391 41.593513 -68.994553
v -431.357391 73.127647 -68.994553
v -428.578400 41.593513 -68.994553
v -428.578400 73.127647 -68.994553
vt 0.240974 0.934402
vt 0.240974 0.934593
vt 0.240784 0.934593
vt 0.240784 0.934402
vt 0.936653 0.026787
vt 0.936653 0.026978
vt 0.936462 0.026978
vt 0.936462 0.026787
vt 0.673996 0.930428
vt 0.673996 0.930618
vt 0.673805 0.930618
vt 0.673805 0.930428
vt 0.633568 0.931137
vt 0.633568 0.931328
vt 0.633377 0.931328
vt 0.633377 0.931137
vt 0.660034 0.930946
vt 0.660225 0.930946
vt 0.660225 0.931137
vt 0.660034 0.931137
vt 0.646278 0.931137
vt 0.646469 0.931137
vt 0.646469 0.931328
vt 0.646278 0.931328
vn 0.0000 0.0000 -1.0000
vn 1.0000 0.0000 0.0000
vn 0.0000 0.0000 1.0000
vn -1.0000 0.0000 0.0000
vn 0.0000 -1.0000 0.0000
vn 0.0000 1.0000 0.0000
usemtl None
s off
f 1/1/1 2/2/1 4/3/1 3/4/1
f 3/5/2 4/6/2 8/7/2 7/8/2
f 7/9/3 8/10/3 6/11/3 5/12/3
f 5/13/4 6/14/4 2/15/4 1/16/4
f 3/17/5 7/18/5 5/19/5 1/20/5
f 8/21/6 4/22/6 2/23/6 6/24/6
o Куб.053_Куб.057
v -445.254150 69.253288 -71.773529
v -414.199097 63.777443 -71.773529
v -445.736694 66.516533 -71.773529
v -414.681641 61.040691 -71.773529
v -445.254150 69.253288 -68.994553
v -414.199097 63.777443 -68.994553
v -445.736694 66.516533 -68.994553
v -414.681641 61.040691 -68.994553
vt 0.608063 0.931519
vt 0.608063 0.931709
vt 0.607872 0.931709
vt 0.607872 0.931519
vt 0.594200 0.931671
vt 0.594200 0.931862
vt 0.594009 0.931862
vt 0.594009 0.931671
vt 0.740761 0.930344
vt 0.740761 0.930534
vt 0.740570 0.930534
vt 0.740570 0.930344
vt 0.181366 0.935631
vt 0.181366 0.935822
vt 0.181175 0.935822
vt 0.181175 0.935631
vt 0.687172 0.930878
vt 0.687363 0.930878
vt 0.687363 0.931068
vt 0.687172 0.931068
vt 0.767632 0.930122
vt 0.767822 0.930122
vt 0.767822 0.930313
vt 0.767632 0.930313
vn 0.0000 0.0000 -1.0000
vn -0.1736 -0.9848 0.0000
vn 0.0000 0.0000 1.0000
vn 0.1736 0.9848 0.0000
vn -0.9848 0.1736 0.0000
vn 0.9848 -0.1736 0.0000
usemtl None
s off
f 9/25/7 10/26/7 12/27/7 11/28/7
f 11/29/8 12/30/8 16/31/8 15/32/8
f 15/33/9 16/34/9 14/35/9 13/36/9
f 13/37/10 14/38/10 10/39/10 9/40/10
f 11/41/11 15/42/11 13/43/11 9/44/11
f 16/45/12 12/46/12 10/47/12 14/48/12
