# Blender v2.93.5 OBJ File: 'domikk.blend'
# www.blender.org
mtllib lllll.mtl
o Куб.044_Куб.049
v -447.617065 45.987335 30.506296
v -447.617065 91.898926 30.506296
v -454.273621 45.987335 29.923922
v -454.273621 91.898926 29.923922
v -447.034668 45.987335 23.849733
v -447.034668 91.898926 23.849733
v -453.691223 45.987335 23.267359
v -453.691223 91.898926 23.267359
v -447.617065 59.284279 30.506296
v -447.617065 72.581223 30.506296
v -454.273621 72.581223 29.923922
v -454.273621 59.284279 29.923922
v -453.691223 72.581223 23.267359
v -453.691223 59.284279 23.267359
v -447.034668 72.581223 23.849733
v -447.034668 59.284279 23.849733
v -453.498840 72.581223 21.068287
v -453.498840 59.284279 21.068287
v -446.842285 72.581223 21.650661
v -446.842285 59.284279 21.650661
v -450.945343 45.987335 30.215109
v -450.945343 85.878159 30.215109
v -450.362946 45.987335 23.558546
v -450.362946 85.878159 23.558546
v -450.362946 59.284279 23.558546
v -450.362946 72.581223 23.558546
v -450.945343 59.284279 30.215109
v -450.945343 72.581223 30.215109
v -450.170563 59.284279 21.359474
v -450.170563 72.581223 21.359474
vt 0.727135 0.810196
vt 0.727135 0.810585
vt 0.727036 0.810760
vt 0.727036 0.810196
vt 0.801262 0.231209
vt 0.801262 0.231773
vt 0.801064 0.231773
vt 0.801064 0.231209
vt 0.348129 0.865250
vt 0.348129 0.865639
vt 0.348030 0.865818
vt 0.348030 0.865250
vt 0.794006 0.796562
vt 0.794006 0.797127
vt 0.793816 0.797127
vt 0.793816 0.796562
vt 0.928436 0.105942
vt 0.928627 0.105942
vt 0.928627 0.106033
vt 0.928436 0.106033
vt 0.955376 0.006355
vt 0.955376 0.006546
vt 0.955200 0.006546
vt 0.955200 0.006355
vt 0.794006 0.795784
vt 0.794006 0.796173
vt 0.793816 0.796173
vt 0.793816 0.795784
vt 0.348129 0.878525
vt 0.348129 0.878914
vt 0.348030 0.878914
vt 0.348030 0.878525
vt 0.794075 0.796173
vt 0.794075 0.796562
vt 0.801262 0.230431
vt 0.801262 0.230820
vt 0.801064 0.230820
vt 0.801064 0.230431
vt 0.727135 0.809418
vt 0.727135 0.809807
vt 0.727036 0.809807
vt 0.727036 0.809418
vt 0.879356 0.271389
vt 0.879356 0.271778
vt 0.879257 0.271778
vt 0.879257 0.271389
vt 0.801003 0.231209
vt 0.801003 0.230820
vt 0.961742 0.425919
vt 0.961742 0.425819
vt 0.961807 0.425819
vt 0.961807 0.425919
vt 0.935341 0.956818
vt 0.935341 0.956909
vt 0.935280 0.956909
vt 0.935280 0.956818
vt 0.935341 0.956718
vt 0.935280 0.956718
vt 0.961742 0.426010
vt 0.961807 0.426010
vt 0.879448 0.271389
vt 0.879448 0.271778
vt 0.727226 0.809807
vt 0.727226 0.810196
vt 0.727226 0.809418
vt 0.348221 0.878525
vt 0.348221 0.878914
vt 0.806694 0.944229
vt 0.806694 0.944038
vt 0.806870 0.944038
vt 0.806870 0.944229
vt 0.928436 0.105843
vt 0.928627 0.105843
vt 0.348221 0.865250
vt 0.348221 0.865818
vt 0.727226 0.810760
vn -0.0872 0.0000 0.9962
vn -0.9962 0.0000 -0.0872
vn 0.0872 0.0000 -0.9962
vn 0.9962 0.0000 0.0872
vn 0.0000 -1.0000 0.0000
vn -0.8711 0.4852 -0.0762
vn 0.0000 1.0000 0.0000
vn 0.8711 0.4852 0.0762
usemtl None
s off
f 28/1/1 22/2/1 4/3/1 11/4/1
f 11/5/2 4/6/2 8/7/2 13/8/2
f 26/9/3 24/10/3 6/11/3 15/12/3
f 15/13/4 6/14/4 2/15/4 10/16/4
f 21/17/5 23/18/5 5/19/5 1/20/5
f 24/21/6 22/22/6 2/23/6 6/24/6
f 5/25/4 16/26/4 9/27/4 1/28/4
f 16/26/4 15/13/4 10/16/4 9/27/4
f 23/29/3 25/30/3 16/31/3 5/32/3
f 15/13/4 16/26/4 20/33/4 19/34/4
f 3/35/2 12/36/2 14/37/2 7/38/2
f 12/36/2 11/5/2 13/8/2 14/37/2
f 21/39/1 27/40/1 12/41/1 3/42/1
f 27/40/1 28/1/1 11/4/1 12/41/1
f 29/43/3 30/44/3 19/45/3 20/46/3
f 14/37/2 13/8/2 17/47/2 18/48/2
f 25/49/5 14/50/5 18/51/5 29/52/5
f 26/53/7 15/54/7 19/55/7 30/56/7
f 13/57/7 26/53/7 30/56/7 17/58/7
f 16/59/5 25/49/5 29/52/5 20/60/5
f 18/61/3 17/62/3 30/44/3 29/43/3
f 9/63/1 10/64/1 28/1/1 27/40/1
f 1/65/1 9/63/1 27/40/1 21/39/1
f 7/66/3 14/67/3 25/30/3 23/29/3
f 8/68/8 4/69/8 22/70/8 24/71/8
f 3/72/5 7/73/5 23/18/5 21/17/5
f 13/74/3 8/75/3 24/10/3 26/9/3
f 10/64/1 2/76/1 22/2/1 28/1/1
o Куб.045_Куб.050
v -443.095825 44.603451 30.901852
v -413.229065 74.584290 33.514854
v -447.802704 49.328331 30.490051
v -417.935974 79.309174 33.103054
v -442.513428 44.603451 24.245289
v -412.646698 74.584290 26.858294
v -447.220337 49.328331 23.833488
v -417.353577 79.309174 26.446493
v -433.729248 54.005810 31.721321
v -424.362671 63.408169 32.540791
v -429.069550 68.133049 32.128990
v -438.436127 58.730690 31.309521
v -428.487183 68.133049 25.472429
v -437.853760 58.730690 24.652958
v -423.780273 63.408169 25.884230
v -433.146851 54.005810 25.064760
v -428.217865 68.133049 22.394041
v -437.584442 58.730690 21.574572
v -423.510956 63.408169 22.805841
v -432.877533 54.005810 21.986372
v -445.449249 46.965893 30.695951
v -417.349518 75.172966 33.154362
v -444.866882 46.965893 24.039389
v -416.767151 75.172966 26.497799
v -435.500305 56.368248 24.858860
v -426.133728 65.770607 25.678329
v -436.082672 56.368248 31.515421
v -426.716095 65.770607 32.334892
v -435.230988 56.368248 21.780472
v -425.864410 65.770607 22.599941
vt 0.318207 0.834610
vt 0.318207 0.834999
vt 0.318108 0.835068
vt 0.318108 0.834610
vt 0.815163 0.272171
vt 0.815163 0.272629
vt 0.814972 0.272629
vt 0.814972 0.272171
vt 0.871117 0.823463
vt 0.871117 0.823853
vt 0.871017 0.823929
vt 0.871017 0.823463
vt 0.753990 0.810013
vt 0.753990 0.810471
vt 0.753799 0.810471
vt 0.753799 0.810013
vt 0.922348 0.796059
vt 0.922539 0.796059
vt 0.922539 0.796150
vt 0.922348 0.796150
vt 0.922470 0.810287
vt 0.922661 0.810287
vt 0.922661 0.810379
vt 0.922470 0.810379
vt 0.753990 0.809235
vt 0.753990 0.809624
vt 0.753799 0.809624
vt 0.753799 0.809235
vt 0.430099 0.877457
vt 0.430099 0.877846
vt 0.430000 0.877846
vt 0.430000 0.877457
vt 0.754082 0.809624
vt 0.754082 0.810013
vt 0.815163 0.271393
vt 0.815163 0.271782
vt 0.814972 0.271782
vt 0.814972 0.271393
vt 0.318207 0.833832
vt 0.318207 0.834221
vt 0.318108 0.834221
vt 0.318108 0.833832
vt 0.484299 0.876831
vt 0.484299 0.877220
vt 0.484200 0.877220
vt 0.484200 0.876831
vt 0.814880 0.272171
vt 0.814880 0.271782
vt 0.646168 0.957039
vt 0.646168 0.956940
vt 0.646259 0.956940
vt 0.646259 0.957039
vt 0.607964 0.957428
vt 0.607964 0.957520
vt 0.607872 0.957520
vt 0.607872 0.957428
vt 0.607964 0.957329
vt 0.607872 0.957329
vt 0.646168 0.957130
vt 0.646259 0.957130
vt 0.484390 0.876831
vt 0.484390 0.877220
vt 0.318298 0.834221
vt 0.318298 0.834610
vt 0.318298 0.833832
vt 0.430191 0.877457
vt 0.430191 0.877846
vt 0.922470 0.810188
vt 0.922661 0.810188
vt 0.922348 0.795959
vt 0.922539 0.795959
vt 0.871208 0.823463
vt 0.871208 0.823929
vt 0.318298 0.835068
vn -0.0872 0.0000 0.9962
vn -0.7044 0.7071 -0.0616
vn 0.0872 -0.0000 -0.9962
vn 0.7044 -0.7071 0.0616
vn -0.7044 -0.7071 -0.0616
vn 0.1404 0.9900 0.0123
vn 0.7044 0.7071 0.0616
vn 0.9863 0.1409 0.0863
usemtl None
s off
f 58/77/9 52/78/9 34/79/9 41/80/9
f 41/81/10 34/82/10 38/83/10 43/84/10
f 56/85/11 54/86/11 36/87/11 45/88/11
f 45/89/12 36/90/12 32/91/12 40/92/12
f 51/93/13 53/94/13 35/95/13 31/96/13
f 54/97/14 52/98/14 32/99/14 36/100/14
f 35/101/12 46/102/12 39/103/12 31/104/12
f 46/102/12 45/89/12 40/92/12 39/103/12
f 53/105/11 55/106/11 46/107/11 35/108/11
f 45/89/12 46/102/12 50/109/12 49/110/12
f 33/111/10 42/112/10 44/113/10 37/114/10
f 42/112/10 41/81/10 43/84/10 44/113/10
f 51/115/9 57/116/9 42/117/9 33/118/9
f 57/116/9 58/77/9 41/80/9 42/117/9
f 59/119/11 60/120/11 49/121/11 50/122/11
f 44/113/10 43/84/10 47/123/10 48/124/10
f 55/125/13 44/126/13 48/127/13 59/128/13
f 56/129/15 45/130/15 49/131/15 60/132/15
f 43/133/15 56/129/15 60/132/15 47/134/15
f 46/135/13 55/125/13 59/128/13 50/136/13
f 48/137/11 47/138/11 60/120/11 59/119/11
f 39/139/9 40/140/9 58/77/9 57/116/9
f 31/141/9 39/139/9 57/116/9 51/115/9
f 37/142/11 44/143/11 55/106/11 53/105/11
f 38/144/16 34/145/16 52/98/16 54/97/16
f 33/146/13 37/147/13 53/94/13 51/93/13
f 43/148/11 38/149/11 54/86/11 56/85/11
f 40/140/9 32/150/9 52/78/9 58/77/9
o Куб.047_Куб.051
v -453.492615 48.507866 29.992249
v -480.148407 86.721680 27.660168
v -458.945343 44.675232 29.515196
v -485.601135 82.889038 27.183115
v -452.910248 48.507866 23.335686
v -479.566010 86.721680 21.003607
v -458.362976 44.675232 22.858633
v -485.018768 82.889038 20.526554
v -461.090424 59.400082 29.327526
v -468.688202 70.292297 28.662806
v -474.140930 66.459671 28.185753
v -466.543152 55.567451 28.850475
v -473.558563 66.459671 21.529192
v -465.960785 55.567451 22.193913
v -468.105835 70.292297 22.006245
v -460.508026 59.400082 22.670965
v -459.259888 60.686729 29.487679
v -466.857666 71.578949 28.822956
v -466.275299 71.578949 22.166395
v -458.677521 60.686729 22.831116
v -458.654175 44.675232 26.186914
v -481.447540 77.351883 24.192751
v -453.201416 48.507866 26.663967
v -475.994812 81.184517 24.669804
v -460.799225 59.400082 25.999247
v -468.397003 70.292297 25.334526
v -466.251953 55.567451 25.522194
v -473.849731 66.459671 24.857471
v -458.968689 60.686729 26.159397
v -466.566498 71.578949 25.494677
vt 0.377167 0.795715
vt 0.377167 0.796303
vt 0.376976 0.796303
vt 0.376976 0.795715
vt 0.812279 0.085892
vt 0.812279 0.086281
vt 0.812180 0.086479
vt 0.812180 0.085892
vt 0.797165 0.376503
vt 0.797165 0.377090
vt 0.796967 0.377090
vt 0.796967 0.376503
vt 0.022964 0.867672
vt 0.022964 0.868061
vt 0.022865 0.868259
vt 0.022865 0.867672
vt 0.925957 0.520393
vt 0.926048 0.520393
vt 0.926048 0.520584
vt 0.925957 0.520584
vt 0.912399 0.566566
vt 0.912399 0.566765
vt 0.912209 0.566765
vt 0.912209 0.566566
vt 0.362778 0.877838
vt 0.362778 0.878227
vt 0.362679 0.878227
vt 0.362679 0.877838
vt 0.377167 0.795326
vt 0.377235 0.795326
vt 0.377235 0.795715
vt 0.797165 0.375725
vt 0.797165 0.376114
vt 0.796967 0.376114
vt 0.796967 0.375725
vt 0.812279 0.085114
vt 0.812279 0.085503
vt 0.812180 0.085503
vt 0.812180 0.085114
vt 0.377167 0.794937
vt 0.376976 0.795326
vt 0.376976 0.794937
vt 0.415718 0.877323
vt 0.415718 0.877712
vt 0.415619 0.877712
vt 0.415619 0.877323
vt 0.146278 0.964142
vt 0.146278 0.964233
vt 0.146217 0.964233
vt 0.146217 0.964142
vt 0.883728 0.956917
vt 0.883728 0.957008
vt 0.883667 0.957008
vt 0.883667 0.956917
vt 0.796906 0.376503
vt 0.796906 0.376114
vt 0.883728 0.956818
vt 0.883667 0.956818
vt 0.146278 0.964043
vt 0.146217 0.964043
vt 0.415810 0.877323
vt 0.415810 0.877712
vt 0.812370 0.085503
vt 0.812370 0.085892
vt 0.812370 0.085114
vt 0.362869 0.877838
vt 0.362869 0.878227
vt 0.909592 0.851616
vt 0.909592 0.851418
vt 0.909782 0.851418
vt 0.909782 0.851616
vt 0.925858 0.520393
vt 0.925858 0.520584
vt 0.023056 0.867672
vt 0.023056 0.868259
vt 0.812370 0.086479
vn -0.0872 -0.0000 0.9962
vn -0.8160 -0.5736 -0.0714
vn 0.0872 0.0000 -0.9962
vn 0.8160 0.5736 0.0714
vn 0.5714 -0.8192 0.0500
vn -0.1750 0.3630 -0.9152
vn -0.5714 0.8192 -0.0500
vn -0.5714 0.8191 -0.0500
vn -0.3313 0.3630 0.8709
usemtl None
s off
f 70/151/17 62/152/17 64/153/17 71/154/17
f 88/155/18 82/156/18 68/157/18 73/158/18
f 73/159/19 68/160/19 66/161/19 75/162/19
f 86/163/20 84/164/20 62/165/20 70/166/20
f 81/167/21 67/168/21 65/169/21 83/170/21
f 82/171/22 64/172/22 62/173/22 84/174/22
f 83/175/20 85/176/20 69/177/20 61/178/20
f 70/151/17 69/179/17 77/180/17 78/181/17
f 67/182/19 74/183/19 76/184/19 65/185/19
f 74/183/19 73/159/19 75/162/19 76/184/19
f 81/186/18 87/187/18 74/188/18 67/189/18
f 87/187/18 88/155/18 73/158/18 74/188/18
f 61/190/17 69/179/17 72/191/17 63/192/17
f 69/179/17 70/151/17 71/154/17 72/191/17
f 89/193/20 90/194/20 78/195/20 77/196/20
f 85/197/21 76/198/21 80/199/21 89/200/21
f 86/201/23 70/202/23 78/203/23 90/204/23
f 76/184/19 75/162/19 79/205/19 80/206/19
f 75/207/24 86/201/24 90/204/24 79/208/24
f 69/209/21 85/197/21 89/200/21 77/210/21
f 80/211/20 79/212/20 90/194/20 89/193/20
f 72/213/18 71/214/18 88/155/18 87/187/18
f 63/215/18 72/213/18 87/187/18 81/186/18
f 65/216/20 76/217/20 85/176/20 83/175/20
f 68/218/25 82/219/25 84/220/25 66/221/25
f 63/222/21 81/167/21 83/170/21 61/223/21
f 75/224/20 66/225/20 84/164/20 86/163/20
f 71/214/18 64/226/18 82/156/18 88/155/18
o Куб.048_Куб.052
v -441.036377 44.042564 34.386101
v -423.986694 81.191368 54.598824
v -447.136749 45.640102 36.595730
v -430.087036 82.788910 56.808453
v -442.128387 47.572861 28.818918
v -425.078705 84.721664 49.031643
v -448.228760 49.170399 31.028545
v -431.179047 86.319199 51.241272
v -436.064606 54.875347 40.280235
v -431.092834 65.708130 46.174370
v -437.193176 67.305672 48.384003
v -442.164978 56.472889 42.489864
v -438.285187 70.835968 42.816818
v -443.256958 60.003185 36.922684
v -432.184845 69.238426 40.607189
v -437.156616 58.405643 34.713055
v -438.789124 72.465149 40.247650
v -443.760925 61.632359 34.353516
v -432.688782 70.867599 38.038025
v -437.660553 60.034821 32.143887
v -444.086578 44.841335 35.490913
v -429.171234 77.339691 53.173321
v -445.178589 48.371628 29.923733
v -430.263214 80.869980 47.606140
v -440.206787 59.204414 35.817867
v -435.235016 70.037201 41.712006
v -439.114777 55.674118 41.385048
v -434.143005 66.506905 47.279186
v -440.710724 60.833588 33.248703
v -435.738953 71.666374 39.142838
vt 0.257706 0.816612
vt 0.257706 0.817001
vt 0.257607 0.817169
vt 0.257607 0.816612
vt 0.796082 0.550438
vt 0.796082 0.550995
vt 0.795891 0.550995
vt 0.795891 0.550438
vt 0.867126 0.291924
vt 0.867126 0.292313
vt 0.867027 0.292480
vt 0.867027 0.291924
vt 0.794838 0.681648
vt 0.794838 0.682205
vt 0.794647 0.682205
vt 0.794647 0.681648
vt 0.930779 0.155113
vt 0.930969 0.155113
vt 0.930969 0.155205
vt 0.930779 0.155205
vt 0.948318 0.795959
vt 0.948318 0.796150
vt 0.948151 0.796150
vt 0.948151 0.795959
vt 0.794838 0.680870
vt 0.794838 0.681259
vt 0.794647 0.681259
vt 0.794647 0.680870
vt 0.095200 0.880066
vt 0.095200 0.880455
vt 0.095100 0.880455
vt 0.095100 0.880066
vt 0.006447 0.964203
vt 0.006447 0.964294
vt 0.006355 0.964294
vt 0.006355 0.964203
vt 0.796082 0.549660
vt 0.796082 0.550049
vt 0.795891 0.550049
vt 0.795891 0.549660
vt 0.257706 0.815834
vt 0.257706 0.816223
vt 0.257607 0.816223
vt 0.257607 0.815834
vt 0.333977 0.877907
vt 0.333977 0.878296
vt 0.333878 0.878296
vt 0.333878 0.877907
vt 0.794930 0.681259
vt 0.794930 0.681648
vt 0.795799 0.550438
vt 0.795799 0.550049
vt 0.962311 0.169380
vt 0.962311 0.169472
vt 0.962219 0.169472
vt 0.962219 0.169380
vt 0.962311 0.169281
vt 0.962219 0.169281
vt 0.334068 0.877907
vt 0.334068 0.878296
vt 0.257797 0.816223
vt 0.257797 0.816612
vt 0.257797 0.815834
vt 0.006447 0.964104
vt 0.006355 0.964104
vt 0.095291 0.880066
vt 0.095291 0.880455
vt 0.948395 0.753357
vt 0.948395 0.753166
vt 0.948563 0.753166
vt 0.948563 0.753357
vt 0.930779 0.155014
vt 0.930969 0.155014
vt 0.867218 0.291924
vt 0.867218 0.292480
vt 0.257797 0.817169
vn 0.1634 -0.5283 0.8332
vn -0.9130 0.2391 0.3307
vn -0.1634 0.5283 -0.8332
vn 0.9130 -0.2391 -0.3307
vn -0.3739 -0.8147 -0.4433
vn -0.5991 0.6179 0.5093
vn 0.3739 0.8147 0.4433
vn 0.9768 0.2052 -0.0615
usemtl None
s off
f 118/227/26 112/228/26 94/229/26 101/230/26
f 101/231/27 94/232/27 98/233/27 103/234/27
f 116/235/28 114/236/28 96/237/28 105/238/28
f 105/239/29 96/240/29 92/241/29 100/242/29
f 111/243/30 113/244/30 95/245/30 91/246/30
f 114/247/31 112/248/31 92/249/31 96/250/31
f 95/251/29 106/252/29 99/253/29 91/254/29
f 106/252/29 105/239/29 100/242/29 99/253/29
f 113/255/28 115/256/28 106/257/28 95/258/28
f 116/259/32 105/260/32 109/261/32 120/262/32
f 93/263/27 102/264/27 104/265/27 97/266/27
f 102/264/27 101/231/27 103/234/27 104/265/27
f 111/267/26 117/268/26 102/269/26 93/270/26
f 117/268/26 118/227/26 101/230/26 102/269/26
f 119/271/28 120/272/28 109/273/28 110/274/28
f 105/239/29 106/252/29 110/275/29 109/276/29
f 104/265/27 103/234/27 107/277/27 108/278/27
f 115/279/30 104/280/30 108/281/30 119/282/30
f 106/283/30 115/279/30 119/282/30 110/284/30
f 108/285/28 107/286/28 120/272/28 119/271/28
f 99/287/26 100/288/26 118/227/26 117/268/26
f 91/289/26 99/287/26 117/268/26 111/267/26
f 103/290/32 116/259/32 120/262/32 107/291/32
f 97/292/28 104/293/28 115/256/28 113/255/28
f 98/294/33 94/295/33 112/296/33 114/297/33
f 93/298/30 97/299/30 113/244/30 111/243/30
f 103/300/28 98/301/28 114/236/28 116/235/28
f 100/288/26 92/302/26 112/228/26 118/227/26
o Куб.049_Куб.053
v -455.319672 45.145050 35.403439
v -469.694427 83.363731 55.869110
v -461.355774 44.349167 32.650063
v -475.730530 82.567841 53.115734
v -453.372375 48.716244 30.102161
v -467.747131 86.934921 50.567837
v -459.408478 47.920357 27.348785
v -473.783234 86.139038 47.814461
v -459.504517 56.271465 41.361507
v -463.689392 67.397881 47.319580
v -469.725464 66.601990 44.566200
v -465.540619 55.475578 38.608131
v -467.778168 70.173187 39.264923
v -463.593323 59.046772 33.306854
v -461.742065 70.969070 42.018303
v -457.557220 59.842659 36.060234
v -466.998932 71.602242 37.143555
v -462.814087 60.475830 31.185486
v -460.962830 72.398125 39.896935
v -456.777985 61.271713 33.938862
v -458.337738 44.747108 34.026749
v -470.892273 78.126350 51.900959
v -456.390411 48.318302 28.725473
v -468.944977 81.697540 46.599682
v -460.575256 59.444717 34.683544
v -464.760132 70.571129 40.641613
v -462.522583 55.873520 39.984821
v -466.707428 66.999939 45.942890
v -459.796021 60.873772 32.562176
v -463.980865 72.000183 38.520245
vt 0.793983 0.810616
vt 0.793983 0.811005
vt 0.793884 0.811172
vt 0.793884 0.810616
vt 0.796654 0.567345
vt 0.796654 0.567902
vt 0.796455 0.567902
vt 0.796455 0.567345
vt 0.513092 0.863983
vt 0.513092 0.864372
vt 0.512993 0.864544
vt 0.512993 0.863983
vt 0.554344 0.795921
vt 0.554344 0.796478
vt 0.554153 0.796478
vt 0.554153 0.795921
vt 0.484200 0.928932
vt 0.484390 0.928932
vt 0.484390 0.929024
vt 0.484200 0.929024
vt 0.948593 0.738937
vt 0.948593 0.739128
vt 0.948425 0.739128
vt 0.948425 0.738937
vt 0.554344 0.795143
vt 0.554344 0.795532
vt 0.554153 0.795532
vt 0.554153 0.795143
vt 0.878090 0.230431
vt 0.878090 0.230820
vt 0.877991 0.230820
vt 0.877991 0.230431
vt 0.554428 0.795532
vt 0.554428 0.795921
vt 0.796654 0.566566
vt 0.796654 0.566956
vt 0.796455 0.566956
vt 0.796455 0.566566
vt 0.793983 0.809837
vt 0.793983 0.810226
vt 0.793884 0.810226
vt 0.793884 0.809837
vt 0.874557 0.609497
vt 0.874557 0.609886
vt 0.874458 0.609886
vt 0.874458 0.609497
vt 0.796379 0.567345
vt 0.796379 0.566956
vt 0.120281 0.964119
vt 0.120281 0.964020
vt 0.120361 0.964020
vt 0.120361 0.964119
vt 0.289124 0.962532
vt 0.289124 0.962624
vt 0.289047 0.962624
vt 0.289047 0.962532
vt 0.289124 0.962433
vt 0.289047 0.962433
vt 0.120281 0.964211
vt 0.120361 0.964211
vt 0.874649 0.609497
vt 0.874649 0.609886
vt 0.794075 0.810226
vt 0.794075 0.810616
vt 0.794075 0.809837
vt 0.878181 0.230431
vt 0.878181 0.230820
vt 0.948959 0.666992
vt 0.948959 0.666801
vt 0.949127 0.666801
vt 0.949127 0.666992
vt 0.484200 0.928833
vt 0.484390 0.928833
vt 0.513184 0.863983
vt 0.513184 0.864544
vt 0.794075 0.811172
vn -0.2914 -0.5344 0.7934
vn -0.9033 -0.1191 -0.4121
vn 0.2914 0.5345 -0.7934
vn 0.9033 0.1191 0.4121
vn 0.3147 -0.8368 -0.4481
vn -0.9396 0.3154 -0.1327
vn -0.2914 -0.5345 0.7934
vn -0.3147 0.8368 0.4481
vn 0.2914 0.5344 -0.7934
vn 0.6248 0.5217 0.5809
usemtl None
s off
f 148/303/34 142/304/34 124/305/34 131/306/34
f 131/307/35 124/308/35 128/309/35 133/310/35
f 146/311/36 144/312/36 126/313/36 135/314/36
f 135/315/37 126/316/37 122/317/37 130/318/37
f 141/319/38 143/320/38 125/321/38 121/322/38
f 144/323/39 142/324/39 122/325/39 126/326/39
f 125/327/37 136/328/37 129/329/37 121/330/37
f 136/328/37 135/315/37 130/318/37 129/329/37
f 143/331/36 145/332/36 136/333/36 125/334/36
f 135/315/37 136/328/37 140/335/37 139/336/37
f 123/337/35 132/338/35 134/339/35 127/340/35
f 132/338/35 131/307/35 133/310/35 134/339/35
f 141/341/34 147/342/34 132/343/34 123/344/34
f 147/342/40 148/303/40 131/306/40 132/343/40
f 149/345/36 150/346/36 139/347/36 140/348/36
f 134/339/35 133/310/35 137/349/35 138/350/35
f 145/351/38 134/352/38 138/353/38 149/354/38
f 146/355/41 135/356/41 139/357/41 150/358/41
f 133/359/41 146/355/41 150/358/41 137/360/41
f 136/361/38 145/351/38 149/354/38 140/362/38
f 138/363/42 137/364/42 150/346/42 149/345/42
f 129/365/34 130/366/34 148/303/34 147/342/34
f 121/367/40 129/365/40 147/342/40 141/341/40
f 127/368/42 134/369/42 145/332/42 143/331/42
f 128/370/43 124/371/43 142/372/43 144/373/43
f 123/374/38 127/375/38 143/320/38 141/319/38
f 133/376/36 128/377/36 144/312/36 146/311/36
f 130/366/40 122/378/40 142/304/40 148/303/40
o Куб.050_Куб.054
v -449.244598 44.564472 42.488445
v -433.323181 85.891479 46.006180
v -455.287323 46.734974 44.338661
v -439.365906 88.061981 47.856400
v -450.793823 45.705997 36.089558
v -434.872406 87.033005 39.607296
v -456.836548 47.876495 37.939777
v -440.915131 89.203499 41.457516
v -442.955566 60.888794 43.877964
v -438.190338 73.257820 44.930809
v -444.233063 75.428322 46.781029
v -448.998291 63.059296 45.728184
v -445.782318 76.569847 40.382145
v -450.547546 64.200821 39.329296
v -439.739594 74.399345 38.531925
v -444.504822 62.030319 37.479076
v -446.421509 77.040817 37.742088
v -451.186737 64.671791 36.689243
v -440.378784 74.870316 35.891872
v -445.144012 62.501289 34.839024
v -452.265961 45.649723 43.413555
v -437.970276 82.756805 46.572094
v -453.815186 46.791248 37.014668
v -439.519531 83.898331 40.173206
v -447.526184 63.115570 38.404186
v -442.760956 75.484596 39.457035
v -445.976929 61.974045 44.803074
v -441.211700 74.343071 45.855919
v -448.165375 63.586540 35.764133
v -443.400146 75.955566 36.816982
vt 0.819481 0.361084
vt 0.819481 0.361351
vt 0.819382 0.361481
vt 0.819382 0.361084
vt 0.802422 0.155914
vt 0.802422 0.156311
vt 0.802223 0.156311
vt 0.802223 0.155914
vt 0.079788 0.877869
vt 0.079788 0.878136
vt 0.079689 0.878269
vt 0.079689 0.877869
vt 0.257797 0.802727
vt 0.257797 0.803123
vt 0.257607 0.803123
vt 0.257607 0.802727
vt 0.527008 0.930222
vt 0.527199 0.930222
vt 0.527199 0.930313
vt 0.527008 0.930313
vt 0.955650 0.230431
vt 0.955650 0.230621
vt 0.955521 0.230621
vt 0.955521 0.230431
vt 0.257797 0.801826
vt 0.257797 0.802338
vt 0.257607 0.802338
vt 0.257607 0.801826
vt 0.874161 0.375725
vt 0.874161 0.376236
vt 0.874062 0.376236
vt 0.874062 0.375725
vt 0.793789 0.957039
vt 0.793789 0.956940
vt 0.793873 0.956940
vt 0.793873 0.957039
vt 0.802422 0.155014
vt 0.802422 0.155525
vt 0.802223 0.155525
vt 0.802223 0.155014
vt 0.819481 0.360184
vt 0.819481 0.360695
vt 0.819382 0.360695
vt 0.819382 0.360184
vt 0.884338 0.066185
vt 0.884338 0.066574
vt 0.884239 0.066574
vt 0.884239 0.066185
vt 0.063156 0.964195
vt 0.063156 0.964287
vt 0.063080 0.964287
vt 0.063080 0.964195
vt 0.257881 0.802338
vt 0.257881 0.802727
vt 0.802147 0.155914
vt 0.802147 0.155525
vt 0.063156 0.964096
vt 0.063080 0.964096
vt 0.884430 0.066185
vt 0.884430 0.066574
vt 0.819572 0.360695
vt 0.819572 0.361084
vt 0.819572 0.360184
vt 0.793789 0.957130
vt 0.793873 0.957130
vt 0.874252 0.375725
vt 0.874252 0.376236
vt 0.954468 0.251045
vt 0.954468 0.250854
vt 0.954597 0.250854
vt 0.954597 0.251045
vt 0.527008 0.930122
vt 0.527199 0.930122
vt 0.079880 0.877869
vt 0.079880 0.878269
vt 0.819572 0.361481
vn 0.2319 -0.1708 0.9576
vn -0.9043 0.3248 0.2769
vn -0.2319 0.1708 -0.9576
vn 0.9043 -0.3248 -0.2769
vn -0.3584 -0.9302 -0.0792
vn -0.5156 0.8132 0.2699
vn 0.3584 0.9302 0.0792
vn 0.9407 0.2901 -0.1760
usemtl None
s off
f 178/379/44 172/380/44 154/381/44 161/382/44
f 161/383/45 154/384/45 158/385/45 163/386/45
f 176/387/46 174/388/46 156/389/46 165/390/46
f 165/391/47 156/392/47 152/393/47 160/394/47
f 171/395/48 173/396/48 155/397/48 151/398/48
f 174/399/49 172/400/49 152/401/49 156/402/49
f 155/403/47 166/404/47 159/405/47 151/406/47
f 166/404/47 165/391/47 160/394/47 159/405/47
f 173/407/46 175/408/46 166/409/46 155/410/46
f 175/411/48 164/412/48 168/413/48 179/414/48
f 153/415/45 162/416/45 164/417/45 157/418/45
f 162/416/45 161/383/45 163/386/45 164/417/45
f 171/419/44 177/420/44 162/421/44 153/422/44
f 177/420/44 178/379/44 161/382/44 162/421/44
f 179/423/46 180/424/46 169/425/46 170/426/46
f 176/427/50 165/428/50 169/429/50 180/430/50
f 165/391/47 166/404/47 170/431/47 169/432/47
f 164/417/45 163/386/45 167/433/45 168/434/45
f 163/435/50 176/427/50 180/430/50 167/436/50
f 168/437/46 167/438/46 180/424/46 179/423/46
f 159/439/44 160/440/44 178/379/44 177/420/44
f 151/441/44 159/439/44 177/420/44 171/419/44
f 166/442/48 175/411/48 179/414/48 170/443/48
f 157/444/46 164/445/46 175/408/46 173/407/46
f 158/446/51 154/447/51 172/448/51 174/449/51
f 153/450/48 157/451/48 173/396/48 171/395/48
f 163/452/46 158/453/46 174/388/46 176/387/46
f 160/440/44 152/454/44 172/380/44 178/379/44
