# Blender v2.93.5 OBJ File: 'polkaa.blend'
# www.blender.org
mtllib polkaa.mtl
o Куб
v -2.814324 1.683291 3.178335
v -2.814324 8.039962 3.178335
v -2.814324 1.683291 -3.563257
v -2.814324 8.039962 -3.563257
v 2.814324 1.683291 3.178335
v 2.814324 8.039962 3.178335
v 2.814324 1.683291 -3.563257
v 2.814324 8.039962 -3.563257
v -2.814324 2.066432 3.178335
v -2.814324 7.656822 3.178335
v -2.814324 7.656822 -3.563257
v -2.814324 2.066432 -3.563257
v 2.814324 7.656822 -3.563257
v 2.814324 2.066432 -3.563257
v 2.814324 7.656822 3.178335
v 2.814324 2.066432 3.178335
v -2.814324 4.700151 3.178335
v -2.814324 5.023102 3.178335
v -2.814324 5.023102 -3.563257
v -2.814324 4.700151 -3.563257
v 2.814324 5.023102 -3.563257
v 2.814324 4.700151 -3.563257
v 2.814324 5.023102 3.178335
v 2.814324 4.700151 3.178335
v 2.159886 1.683291 -3.563257
v -2.159886 1.683291 -3.563257
v -2.545393 8.039962 -3.563257
v 2.545393 8.039962 -3.563257
v -2.159886 1.683291 3.178335
v 2.159886 1.683291 3.178335
v 2.545393 8.039962 3.178335
v -2.545393 8.039962 3.178335
v 2.545393 2.066432 3.178335
v -2.545393 2.066432 3.178335
v 2.545393 7.656822 3.178335
v -2.545393 7.656822 3.178335
v -2.545393 2.066432 -3.563257
v 2.545393 2.066432 -3.563257
v -2.545393 7.656822 -3.563257
v 2.545393 7.656822 -3.563257
v -2.545393 4.700151 -3.563257
v 2.545393 4.700151 -3.563257
v -2.545393 5.023102 -3.563257
v 2.545393 5.023102 -3.563257
v 2.545393 4.700151 3.178335
v -2.545393 4.700151 3.178335
v 2.545393 5.023102 3.178335
v -2.545393 5.023102 3.178335
v 2.545393 2.066432 -3.361859
v -2.545393 2.066432 -3.361859
v 2.545393 7.656822 -3.361859
v -2.545393 7.656822 -3.361859
v 2.545393 4.700151 -3.361859
v -2.545393 4.700151 -3.361859
v 2.545393 5.023102 -3.361859
v -2.545393 5.023102 -3.361859
v -2.814324 1.265589 -3.563257
v -2.814324 1.265589 3.178335
v -2.159886 1.265589 -3.563257
v 2.814324 1.265589 3.178335
v 2.814324 1.265589 -3.563257
v 2.159886 1.265589 3.178335
v 2.159886 1.265589 -3.563257
v -2.159886 1.265589 3.178335
v 2.545393 2.066432 3.178335
v -2.545393 2.066432 3.178335
v 2.545393 7.656822 3.178335
v -2.545393 7.656822 3.178335
v 2.545393 4.700151 3.178335
v -2.545393 4.700151 3.178335
v 2.545393 5.023102 3.178335
v -2.545393 5.023102 3.178335
v 2.545393 2.066432 -3.361859
v -2.545393 2.066432 -3.361859
v 2.545393 7.656822 -3.361859
v -2.545393 7.656822 -3.361859
v 2.545393 4.700151 -3.361859
v -2.545393 4.700151 -3.361859
v 2.545393 5.023102 -3.361859
v -2.545393 5.023102 -3.361859
v 2.545393 2.066432 3.178335
v -2.545393 2.066432 3.178335
v 2.545393 7.656822 3.178335
v -2.545393 7.656822 3.178335
v 2.545393 4.700151 3.178335
v -2.545393 4.700151 3.178335
v 2.545393 5.023102 3.178335
v -2.545393 5.023102 3.178335
v 2.545393 2.066432 -3.361859
v -2.545393 2.066432 -3.361859
v 2.545393 7.656822 -3.361859
v -2.545393 7.656822 -3.361859
v 2.545393 4.700151 -3.361859
v -2.545393 4.700151 -3.361859
v 2.545393 5.023102 -3.361859
v -2.545393 5.023102 -3.361859
v -3.047093 7.640977 3.457130
v -3.047093 8.055806 3.457130
v -3.047093 8.055806 -3.842052
v 2.755919 8.055806 -3.842052
v 3.047093 8.055806 -3.842052
v 3.047093 8.055806 3.457130
v -2.755919 8.055806 3.457130
v -3.047093 7.640977 -3.842052
v 3.047093 7.640977 -3.842052
v 3.047093 7.640977 3.457130
v -2.755919 7.640977 3.457130
v 2.755919 7.640977 -3.842052
v -2.755919 8.055806 -3.842052
v 2.755919 8.055806 3.457130
v 2.755919 7.640977 3.457130
v -2.755919 7.640977 -3.842052
vt 0.625000 0.500000
vt 0.625000 0.750000
vt 0.625000 0.750000
vt 0.625000 0.500000
vt 0.541667 0.416667
vt 0.541667 0.333333
vt 0.541667 0.333333
vt 0.541667 0.416667
vt 0.708333 0.750000
vt 0.791667 0.750000
vt 0.791667 0.750000
vt 0.708333 0.750000
vt 0.541667 1.000000
vt 0.541667 0.916667
vt 0.541667 0.916667
vt 0.541667 1.000000
vt 0.375000 0.250000
vt 0.375000 0.333333
vt 0.375000 0.333333
vt 0.375000 0.250000
vt 0.791667 0.500000
vt 0.875000 0.500000
vt 0.875000 0.750000
vt 0.375000 0.916667
vt 0.458333 0.916667
vt 0.458333 1.000000
vt 0.375000 1.000000
vt 0.513889 0.916667
vt 0.513889 1.000000
vt 0.375000 0.500000
vt 0.458333 0.500000
vt 0.458333 0.750000
vt 0.375000 0.750000
vt 0.513889 0.500000
vt 0.541667 0.500000
vt 0.541667 0.750000
vt 0.513889 0.750000
vt 0.375000 0.416667
vt 0.458333 0.416667
vt 0.513889 0.416667
vt 0.375000 0.000000
vt 0.458333 0.000000
vt 0.458333 0.250000
vt 0.513889 0.000000
vt 0.541667 0.000000
vt 0.541667 0.250000
vt 0.513889 0.250000
vt 0.486111 0.000000
vt 0.486111 0.250000
vt 0.486111 0.416667
vt 0.486111 0.500000
vt 0.486111 0.750000
vt 0.486111 0.916667
vt 0.486111 1.000000
vt 0.513889 0.833333
vt 0.486111 0.833333
vt 0.458333 0.833333
vt 0.541667 0.833333
vt 0.541667 0.833333
vt 0.513889 0.833333
vt 0.513889 0.333333
vt 0.486111 0.333333
vt 0.458333 0.333333
vt 0.458333 0.916667
vt 0.486111 0.916667
vt 0.375000 0.833333
vt 0.708333 0.500000
vt 0.375000 1.000000
vt 0.375000 0.916667
vt 0.208333 0.500000
vt 0.291667 0.500000
vt 0.291667 0.750000
vt 0.208333 0.750000
vt 0.541667 0.250000
vt 0.708333 0.500000
vt 0.541667 0.000000
vt 0.458333 0.833333
vt 0.486111 0.833333
vt 0.541667 0.916667
vt 0.513889 0.916667
vt 0.291667 0.500000
vt 0.375000 0.500000
vt 0.375000 0.750000
vt 0.291667 0.750000
vt 0.125000 0.500000
vt 0.208333 0.500000
vt 0.208333 0.750000
vt 0.125000 0.750000
vt 0.375000 0.416667
vt 0.375000 0.000000
vt 0.375000 0.833333
vt 0.513889 0.833333
vt 0.513889 0.833333
vt 0.541667 0.833333
vt 0.541667 0.833333
vt 0.486111 0.916667
vt 0.486111 0.916667
vt 0.458333 0.916667
vt 0.458333 0.916667
vt 0.458333 0.833333
vt 0.486111 0.833333
vt 0.513889 0.916667
vt 0.541667 0.916667
vt 0.513889 0.916667
vt 0.486111 0.833333
vt 0.541667 0.916667
vt 0.458333 0.833333
vt 0.513889 0.833333
vt 0.541667 0.833333
vt 0.541667 0.833333
vt 0.513889 0.833333
vt 0.486111 0.916667
vt 0.458333 0.916667
vt 0.458333 0.916667
vt 0.486111 0.916667
vt 0.458333 0.833333
vt 0.486111 0.833333
vt 0.541667 0.916667
vt 0.513889 0.916667
vt 0.513889 0.916667
vt 0.486111 0.833333
vt 0.541667 0.916667
vt 0.458333 0.833333
vt 0.625000 0.000000
vt 0.625000 0.250000
vt 0.625000 0.416667
vt 0.541667 0.500000
vt 0.541667 0.750000
vt 0.625000 0.916667
vt 0.625000 1.000000
vt 0.625000 0.833333
vt 0.541667 0.833333
vt 0.625000 0.333333
vt 0.791667 0.500000
vt 0.875000 0.500000
vt 0.875000 0.750000
vn -0.0679 0.9977 0.0000
vn 0.0000 -0.9984 0.0567
vn 0.0000 0.9984 -0.0567
vn 0.0000 -0.9984 -0.0567
vn 0.0000 0.0000 -1.0000
vn 0.0000 1.0000 0.0000
vn 0.0000 0.0000 1.0000
vn 1.0000 0.0000 0.0000
vn -1.0000 0.0000 0.0000
vn 0.0000 -1.0000 0.0000
vn 0.0000 0.9984 0.0567
vn 0.0679 -0.9977 0.0000
vn -0.0679 -0.9977 0.0000
vn 0.0679 0.9977 0.0000
usemtl None
s off
f 8/1/1 6/2/1 102/3/1 101/4/1
f 40/5/2 39/6/2 112/7/2 108/8/2
f 31/9/3 32/10/3 103/11/3 110/12/3
f 10/13/4 36/14/4 107/15/4 97/16/4
f 3/17/5 26/18/5 59/19/5 57/20/5
f 27/21/6 4/22/6 2/23/6 32/10/6
f 29/24/7 34/25/7 9/26/7 1/27/7
f 48/28/7 36/14/7 10/13/7 18/29/7
f 7/30/8 14/31/8 16/32/8 5/33/8
f 21/34/8 13/35/8 15/36/8 23/37/8
f 25/38/5 38/39/5 14/31/5 7/30/5
f 44/40/5 40/5/5 13/35/5 21/34/5
f 1/41/9 9/42/9 12/43/9 3/17/9
f 18/44/9 10/45/9 11/46/9 19/47/9
f 9/42/9 17/48/9 20/49/9 12/43/9
f 17/48/9 18/44/9 19/47/9 20/49/9
f 38/39/5 42/50/5 22/51/5 14/31/5
f 42/50/5 44/40/5 21/34/5 22/51/5
f 14/31/8 22/51/8 24/52/8 16/32/8
f 22/51/8 21/34/8 23/37/8 24/52/8
f 34/25/7 46/53/7 17/54/7 9/26/7
f 46/53/7 48/28/7 18/29/7 17/54/7
f 24/52/7 23/37/7 47/55/7 45/56/7
f 45/56/7 47/55/7 48/28/7 46/53/7
f 16/32/7 24/52/7 45/56/7 33/57/7
f 47/55/9 35/58/9 51/59/9 55/60/9
f 20/49/5 19/47/5 43/61/5 41/62/5
f 41/62/5 43/61/5 44/40/5 42/50/5
f 12/43/5 20/49/5 41/62/5 37/63/5
f 37/63/5 41/62/5 42/50/5 38/39/5
f 19/47/5 11/46/5 39/6/5 43/61/5
f 43/61/5 39/6/5 40/5/5 44/40/5
f 3/17/5 12/43/5 37/63/5 26/18/5
f 26/18/5 37/63/5 38/39/5 25/38/5
f 23/37/7 15/36/7 35/58/7 47/55/7
f 46/53/8 34/25/8 50/64/8 54/65/8
f 5/33/7 16/32/7 33/57/7 30/66/7
f 30/66/7 33/57/7 34/25/7 29/24/7
f 8/1/6 28/67/6 31/9/6 6/2/6
f 28/67/6 27/21/6 32/10/6 31/9/6
f 29/24/7 1/27/7 58/68/7 64/69/7
f 26/70/10 25/71/10 30/72/10 29/73/10
f 39/6/2 11/46/2 104/74/2 112/7/2
f 6/2/3 31/9/3 110/12/3 102/3/3
f 28/67/11 8/1/11 101/4/11 100/75/11
f 11/46/12 10/45/12 97/76/12 104/74/12
f 49/77/7 53/78/7 54/65/7 50/64/7
f 55/60/7 51/59/7 52/79/7 56/80/7
f 48/28/6 47/55/6 55/60/6 56/80/6
f 45/56/10 46/53/10 54/65/10 53/78/10
f 36/14/8 48/28/8 56/80/8 52/79/8
f 33/57/9 45/56/9 53/78/9 49/77/9
f 35/58/10 36/14/10 52/79/10 51/59/10
f 34/25/6 33/57/6 49/77/6 50/64/6
f 63/81/10 61/82/10 60/83/10 62/84/10
f 57/85/10 59/86/10 64/87/10 58/88/10
f 25/38/5 7/30/5 61/82/5 63/89/5
f 1/41/9 3/17/9 57/20/9 58/90/9
f 26/70/8 29/73/8 64/87/8 59/86/8
f 7/30/8 5/33/8 60/83/8 61/82/8
f 30/72/9 25/71/9 63/81/9 62/84/9
f 5/33/7 30/66/7 62/91/7 60/83/7
f 71/92/8 79/93/8 75/94/8 67/95/8
f 70/96/9 78/97/9 74/98/9 66/99/9
f 73/100/5 74/98/5 78/97/5 77/101/5
f 79/93/5 80/102/5 76/103/5 75/94/5
f 72/104/10 80/102/10 79/93/10 71/92/10
f 69/105/6 77/101/6 78/97/6 70/96/6
f 68/106/9 76/103/9 80/102/9 72/104/9
f 65/107/8 73/100/8 77/101/8 69/105/8
f 67/95/6 75/94/6 76/103/6 68/106/6
f 66/99/10 74/98/10 73/100/10 65/107/10
f 87/108/9 83/109/9 91/110/9 95/111/9
f 86/112/8 82/113/8 90/114/8 94/115/8
f 89/116/7 93/117/7 94/115/7 90/114/7
f 95/111/7 91/110/7 92/118/7 96/119/7
f 88/120/6 87/108/6 95/111/6 96/119/6
f 85/121/10 86/112/10 94/115/10 93/117/10
f 84/122/8 88/120/8 96/119/8 92/118/8
f 81/123/9 85/121/9 93/117/9 89/116/9
f 83/109/10 84/122/10 92/118/10 91/110/10
f 82/113/6 81/123/6 89/116/6 90/114/6
f 72/104/7 71/92/7 87/108/7 88/120/7
f 67/95/7 68/106/7 84/122/7 83/109/7
f 71/92/7 67/95/7 83/109/7 87/108/7
f 65/107/7 69/105/7 85/121/7 81/123/7
f 69/105/7 70/96/7 86/112/7 85/121/7
f 66/99/7 65/107/7 81/123/7 82/113/7
f 68/106/7 72/104/7 88/120/7 84/122/7
f 70/96/7 66/99/7 82/113/7 86/112/7
f 97/76/9 98/124/9 99/125/9 104/74/9
f 108/8/5 100/126/5 101/4/5 105/127/5
f 105/127/8 101/4/8 102/3/8 106/128/8
f 107/15/7 103/129/7 98/130/7 97/16/7
f 106/128/7 102/3/7 110/131/7 111/132/7
f 111/132/7 110/131/7 103/129/7 107/15/7
f 104/74/5 99/125/5 109/133/5 112/7/5
f 112/7/5 109/133/5 100/126/5 108/8/5
f 15/36/13 13/35/13 105/127/13 106/128/13
f 4/22/11 27/21/11 109/134/11 99/135/11
f 2/23/14 4/22/14 99/135/14 98/136/14
f 35/58/4 15/36/4 106/128/4 111/132/4
f 27/21/11 28/67/11 100/75/11 109/134/11
f 13/35/2 40/5/2 108/8/2 105/127/2
f 36/14/4 35/58/4 111/132/4 107/15/4
f 32/10/3 2/23/3 98/136/3 103/11/3
o Куб.001
v 1.390349 6.607975 3.352191
v -1.390349 6.607975 3.352191
v 1.390349 6.071949 3.352191
v -1.390349 6.071949 3.352191
v 2.545393 7.656822 -3.361858
v -2.545393 7.656822 -3.361858
v 2.545393 5.023102 -3.361858
v -2.545393 5.023102 -3.361858
v 2.246666 5.360467 2.840971
v -2.246666 5.360467 2.840971
v 2.246666 7.656822 2.840971
v -2.246666 7.656822 2.840971
v 2.246666 7.656822 -3.024493
v -2.246666 7.656822 -3.024493
v 2.246666 5.360467 -3.024493
v -2.246666 5.360467 -3.024493
v 2.545393 5.023102 3.352191
v -2.545393 5.023102 3.352191
v 2.545393 7.656822 3.352191
v -2.545393 7.656822 3.352191
v 1.390349 6.607975 3.840580
v -1.390349 6.607975 3.840580
v 1.390349 6.071949 3.840580
v -1.390349 6.071949 3.840580
v -1.261572 5.170338 3.352191
v -1.261572 7.170338 3.352191
v 1.261572 5.170338 3.352191
v 1.261572 7.170338 3.352191
v -1.261572 6.071949 3.352191
v 1.261572 6.071949 3.685102
v 1.261572 6.071949 3.352191
v -1.261572 6.071949 3.685102
v -1.261572 6.607975 3.685102
v -1.261572 6.607975 3.352191
v 1.261572 6.607975 3.352191
v 1.261572 6.607975 3.685102
v -1.261572 5.365231 3.352191
v -0.891171 5.463941 3.352191
vt 0.513889 0.833333
vt 0.513889 0.833333
vt 0.541667 0.833333
vt 0.541667 0.833333
vt 0.513889 0.916667
vt 0.541667 0.916667
vt 0.513889 0.916667
vt 0.541667 0.916667
vt 0.513889 0.833333
vt 0.541667 0.833333
vt 0.541667 0.833333
vt 0.513889 0.833333
vt 0.541667 0.916667
vt 0.513889 0.916667
vt 0.513889 0.916667
vt 0.541667 0.916667
vt 0.517497 0.896577
vt 0.524951 0.899013
vt 0.524951 0.901464
vt 0.524951 0.848536
vt 0.524951 0.850987
vt 0.515442 0.853978
vt 0.515442 0.896022
vt 0.518538 0.890507
vt 0.530604 0.848536
vt 0.530604 0.901464
vt 0.536536 0.852967
vt 0.530604 0.850987
vt 0.530604 0.899013
vt 0.536536 0.897033
vt 0.524951 0.901464
vt 0.524951 0.848536
vt 0.530604 0.848536
vt 0.530604 0.901464
vt 0.524951 0.899013
vt 0.524951 0.850987
vt 0.530604 0.850987
vt 0.530604 0.899013
vt 0.554705 0.000000
vt 0.487701 0.000000
vt 0.487701 0.250000
vt 0.554705 0.250000
vt 0.487701 0.500000
vt 0.554705 0.500000
vt 0.487701 0.750000
vt 0.554705 0.750000
vt 0.487701 1.000000
vt 0.554705 1.000000
vn 1.0000 0.0000 0.0000
vn 0.0000 0.0000 -1.0000
vn 0.0000 -1.0000 0.0000
vn -1.0000 0.0000 0.0000
vn 0.0000 0.0000 1.0000
vn 0.0000 1.0000 0.0000
usemtl None
s off
f 129/137/15 119/138/15 117/139/15 131/140/15
f 119/138/16 120/141/16 118/142/16 117/139/16
f 130/143/17 120/141/17 119/138/17 129/137/17
f 132/144/18 118/142/18 120/141/18 130/143/18
f 121/145/18 123/146/18 125/147/18 127/148/18
f 127/148/19 125/147/19 126/149/19 128/150/19
f 122/151/20 121/145/20 127/148/20 128/150/20
f 124/152/15 122/151/15 128/150/15 126/149/15
f 122/151/16 124/152/16 123/146/16 121/145/16
f 132/144/20 131/140/20 123/146/20 124/152/20
f 118/142/20 132/144/20 124/152/20 126/149/20
f 117/139/20 118/142/20 126/149/20 125/147/20
f 131/140/20 117/139/20 125/147/20 123/146/20
f 149/153/19 141/154/19 116/155/19 130/143/19 129/137/19 115/156/19 143/157/19 139/158/19 137/159/19
f 143/157/19 141/154/19 149/153/19 150/160/19 137/159/19 139/158/19
f 149/153/19 137/159/19 150/160/19
f 113/161/19 115/156/19 129/137/19 131/140/19
f 116/155/19 114/162/19 132/144/19 130/143/19
f 140/163/19 147/164/19 113/161/19 131/140/19 132/144/19 114/162/19 146/165/19 138/166/19
f 146/165/19 147/164/19 140/163/19 138/166/19
f 136/167/19 135/168/19 133/169/19 134/170/19
f 114/162/18 116/155/18 136/167/18 134/170/18
f 115/156/17 135/168/17 136/167/17 116/155/17 141/154/17 144/171/17 142/172/17 143/157/17
f 146/165/20 114/162/20 134/170/20 133/169/20 113/161/20 147/164/20 148/173/20 145/174/20
f 115/156/15 113/161/15 133/169/15 135/168/15
f 145/175/15 144/176/15 141/177/15 146/178/15
f 146/178/19 141/177/19 143/179/19 147/180/19
f 143/179/18 142/181/18 148/182/18 147/180/18
f 142/181/16 144/183/16 145/184/16 148/182/16
o Куб.002
v 1.390349 3.115278 3.352191
v -1.390349 3.115278 3.352191
v 1.390349 3.651305 3.352191
v -1.390349 3.651305 3.352191
v 2.545393 2.066432 -3.361858
v -2.545393 2.066432 -3.361858
v 2.545393 4.700152 -3.361858
v -2.545393 4.700152 -3.361858
v 2.246666 2.403797 2.840971
v -2.246666 2.403797 2.840971
v 2.246666 4.700152 2.840971
v -2.246666 4.700152 2.840971
v 2.246666 2.403797 -3.024493
v -2.246666 2.403797 -3.024493
v 2.246666 4.700152 -3.024493
v -2.246666 4.700152 -3.024493
v 2.545393 2.066432 3.352191
v -2.545393 2.066432 3.352191
v 2.545393 4.700152 3.352191
v -2.545393 4.700152 3.352191
v 1.390349 3.115278 3.840580
v -1.390349 3.115278 3.840580
v 1.390349 3.651305 3.840580
v -1.390349 3.651305 3.840580
v -1.261572 2.295951 3.352191
v -1.261572 4.295951 3.352191
v 1.261572 2.295951 3.352191
v 1.261572 4.295951 3.352191
v -1.261572 3.651305 3.685102
v -1.261572 3.651305 3.352191
v 1.261572 3.651305 3.352191
v 1.261572 3.651305 3.685102
v -1.261572 3.115278 3.352191
v 1.261572 3.115278 3.685102
v 1.261572 3.115278 3.352191
v -1.261572 3.115278 3.685102
v -1.261572 2.408561 3.352191
v -1.047555 2.465595 3.352191
vt 0.486111 0.916667
vt 0.486111 0.916667
vt 0.458333 0.916667
vt 0.458333 0.916667
vt 0.458333 0.833333
vt 0.486111 0.833333
vt 0.458333 0.833333
vt 0.486111 0.833333
vt 0.475049 0.899013
vt 0.475049 0.901464
vt 0.475049 0.901464
vt 0.475049 0.848536
vt 0.475049 0.848536
vt 0.475049 0.850987
vt 0.475049 0.850987
vt 0.475049 0.899013
vt 0.469395 0.848536
vt 0.469395 0.848536
vt 0.469395 0.901464
vt 0.469395 0.901464
vt 0.469395 0.899013
vt 0.469395 0.899013
vt 0.469395 0.850987
vt 0.469395 0.850987
vt 0.486111 0.916667
vt 0.458333 0.916667
vt 0.458333 0.916667
vt 0.486111 0.916667
vt 0.458333 0.833333
vt 0.486111 0.833333
vt 0.458333 0.833333
vt 0.486111 0.833333
vt 0.461942 0.896577
vt 0.460754 0.853752
vt 0.460754 0.896248
vt 0.462543 0.893097
vt 0.481848 0.853231
vt 0.481848 0.896769
vt 0.477416 0.250000
vt 0.544419 0.250000
vt 0.544419 0.000000
vt 0.477416 0.000000
vt 0.477416 0.500000
vt 0.544419 0.500000
vt 0.544419 0.750000
vt 0.477416 0.750000
vt 0.544419 1.000000
vt 0.477416 1.000000
vn -1.0000 0.0000 0.0000
vn 0.0000 0.0000 -1.0000
vn 1.0000 0.0000 0.0000
vn 0.0000 -1.0000 0.0000
vn 0.0000 1.0000 0.0000
vn 0.0000 0.0000 1.0000
usemtl None
s off
f 170/185/21 158/186/21 156/187/21 168/188/21
f 155/189/22 156/187/22 158/186/22 157/190/22
f 167/191/23 155/189/23 157/190/23 169/192/23
f 168/188/24 156/187/24 155/189/24 167/191/24
f 180/193/25 154/194/25 174/195/25 173/196/25 153/197/25 181/198/25 182/199/25 179/200/25
f 151/201/24 171/202/24 172/203/24 152/204/24 183/205/24 186/206/24 184/207/24 185/208/24
f 162/209/23 160/210/23 164/211/23 166/212/23
f 163/213/26 165/214/26 166/212/26 164/211/26
f 159/215/21 161/216/21 165/214/21 163/213/21
f 160/210/25 159/215/25 163/213/25 164/211/25
f 160/210/22 162/209/22 161/216/22 159/215/22
f 169/192/25 157/190/25 165/214/25 161/216/25
f 157/190/25 158/186/25 166/212/25 165/214/25
f 158/186/25 170/185/25 162/209/25 166/212/25
f 170/185/25 169/192/25 161/216/25 162/209/25
f 187/217/26 183/205/26 152/204/26 168/188/26 167/191/26 151/201/26 185/208/26 177/218/26 175/219/26
f 185/208/26 183/205/26 187/217/26 188/220/26 175/219/26 177/218/26
f 187/217/26 175/219/26 188/220/26
f 153/197/26 151/201/26 167/191/26 169/192/26
f 152/204/26 154/194/26 170/185/26 168/188/26
f 178/221/26 181/198/26 153/197/26 169/192/26 170/185/26 154/194/26 180/193/26 176/222/26
f 180/193/26 181/198/26 178/221/26 176/222/26
f 172/203/26 171/202/26 173/196/26 174/195/26
f 154/194/21 152/204/21 172/203/21 174/195/21
f 151/201/23 153/197/23 173/196/23 171/202/23
f 183/223/23 180/224/23 179/225/23 186/226/23
f 180/224/26 183/223/26 185/227/26 181/228/26
f 182/229/21 181/228/21 185/227/21 184/230/21
f 179/231/22 182/229/22 184/230/22 186/232/22
